:SAMPLES-PER-SECOND 30
:FULLY-SPECIFIED
:DEGREES
532
root  -15.8233 39.3681 -0.0928641 -176.05 -35.1975 168.082
RightUpLeg  -14.8845 22.7871 -5.66983
RightLeg  25.5327 -0.0757998 -0.272397
RightFoot  -4.26836 0.34904 -6.10163
RightToes  -5.28226e-011 1.30204e-014 -6.03759e-014
Spine  17.2955 9.97639 18.4616
Spine1  -15.3916 13.7841 -26.7507
HEad  15.0451 34.8251 -1.5738
LeftShoulder1  2.54655 18.0161 29.2722
LeftArm  -83.3167 -25.6601 20.8202
LeftForeArm  -11.3761 -68.8466 -33.2724
LeftHand  0.230974 -8.94164 -1.47554
RightShoulder  0.243959 -5.22687 -25.1659
RightArm  -99.7792 50.2768 -16.2413
RightForeArm  -8.88596 66.4697 28.675
RightHand  -0.521844 8.01653 -4.87706
LeftUpLeg  -40.2691 -14.647 2.53787
LeftLeg  122.304 9.49819 -14.0731
LeftFoot  37.6723 14.1283 -30.9661
LeftToes  -2.42178e-010 -1.66495e-011 -2.88221e-011
533
root  -15.5347 39.3293 0.0207968 -176.364 -37.8324 169.673
RightUpLeg  -15.2277 20.0936 -4.22186
RightLeg  24.7406 0.0667506 -0.20407
RightFoot  -3.41664 0.404601 -6.1693
RightToes  -5.28226e-011 1.30204e-014 -6.03759e-014
Spine  16.4431 9.49719 18.678
Spine1  -15.4493 13.2514 -25.1634
HEad  15.3874 33.9724 -1.09015
LeftShoulder1  2.31282 17.4449 28.2344
LeftArm  -82.7506 -25.9703 18.13
LeftForeArm  -9.4468 -69.736 -35.0617
LeftHand  0.107255 -8.75031 -0.491843
RightShoulder  0.148367 -4.64228 -23.7138
RightArm  -97.2926 49.3685 -14.1914
RightForeArm  -5.02193 67.86 30.6321
RightHand  -0.594208 7.60813 -5.67124
LeftUpLeg  -37.9146 -11.9924 0.513748
LeftLeg  124.504 10.0183 -13.6937
LeftFoot  38.1677 14.3849 -31.1648
LeftToes  -2.42178e-010 -1.66495e-011 -2.88221e-011
534
root  -15.2009 39.2986 0.103226 -176.723 -41.0192 171.248
RightUpLeg  -15.4989 17.1913 -2.73705
RightLeg  23.8345 -0.137679 -0.385012
RightFoot  -2.44575 0.431186 -5.74877
RightToes  -5.28226e-011 1.30204e-014 -6.03759e-014
Spine  15.4214 9.03217 18.4946
Spine1  -15.0963 12.7551 -23.2895
HEad  15.0678 32.6302 -1.17484
LeftShoulder1  2.06953 16.5775 27.4187
LeftArm  -81.6011 -25.3981 15.2295
LeftForeArm  -6.76981 -71.0939 -38.2396
LeftHand  -0.0959147 -8.1322 1.20695
RightShoulder  0.100936 -4.35259 -22.2904
RightArm  -94.5823 47.4322 -12.8548
RightForeArm  -2.81422 69.2431 33.1261
RightHand  -0.764145 6.6356 -7.69488
LeftUpLeg  -34.7926 -9.05 -0.839295
LeftLeg  125.5 9.23231 -12.2617
LeftFoot  38.6852 14.5685 -31.1959
LeftToes  -2.42178e-010 -1.66495e-011 -2.88221e-011
535
root  -14.8502 39.2819 0.114005 -176.731 -45.0367 172.355
RightUpLeg  -15.7849 14.0695 -1.50461
RightLeg  22.9994 -1.11896 -1.06471
RightFoot  -1.58934 0.442124 -5.29946
RightToes  -5.28226e-011 1.30204e-014 -6.03759e-014
Spine  14.0701 8.36351 17.2521
Spine1  -14.6015 11.858 -20.8483
HEad  14.2078 30.9105 -1.58438
LeftShoulder1  1.86068 15.7249 26.7674
LeftArm  -79.912 -24.0994 12.4092
LeftForeArm  -4.78977 -72.2753 -41.6654
LeftHand  -0.326964 -6.83431 3.46011
RightShoulder  0.099511 -4.43184 -21.0553
RightArm  -91.7327 44.8613 -11.051
RightForeArm  -0.935602 70.6963 36.3689
RightHand  -0.868428 6.22516 -8.9805
LeftUpLeg  -31.2053 -6.88694 -1.21075
LeftLeg  124.261 7.51882 -10.5847
LeftFoot  38.7197 14.2481 -30.5218
LeftToes  -2.42178e-010 -1.66495e-011 -2.88221e-011
536
root  -14.514 39.276 0.0688456 -176.349 -49.7861 173.111
RightUpLeg  -16.2371 11.1791 -0.627821
RightLeg  22.2316 -2.74279 -1.96609
RightFoot  -0.983635 0.444677 -4.97253
RightToes  -5.28226e-011 1.30204e-014 -6.03759e-014
Spine  12.6075 7.36756 15.4135
Spine1  -14.4168 10.4596 -18.2411
HEad  13.3352 28.6839 -1.95789
LeftShoulder1  1.64839 14.9094 25.9228
LeftArm  -77.8944 -22.3244 9.78708
LeftForeArm  -2.91415 -73.2384 -45.0157
LeftHand  -0.570218 -5.33555 6.4776
RightShoulder  0.0958634 -4.54359 -19.4682
RightArm  -88.255 41.3986 -8.36226
RightForeArm  3.91619 72.7285 41.9431
RightHand  -0.963291 6.0736 -10.0504
LeftUpLeg  -27.4728 -5.91408 -0.212195
LeftLeg  120.591 5.01023 -8.26837
LeftFoot  38.6613 13.361 -28.7541
LeftToes  -2.42178e-010 -1.66495e-011 -2.88221e-011
537
root  -14.2084 39.2665 0.00785479 -175.87 -54.817 173.773
RightUpLeg  -16.8336 8.54841 0.0107642
RightLeg  21.6437 -4.55561 -2.81315
RightFoot  -0.61591 0.420876 -4.52234
RightToes  -5.28226e-011 1.30204e-014 -6.03759e-014
Spine  11.237 6.28401 13.5578
Spine1  -14.3289 8.9824 -15.7156
HEad  12.6038 25.9717 -2.446
LeftShoulder1  1.38782 14.0374 24.5128
LeftArm  -75.4985 -20.0636 6.95248
LeftForeArm  0.198278 -74.239 -49.1073
LeftHand  -0.794285 -3.83259 10.2536
RightShoulder  0.0775177 -4.63092 -16.9938
RightArm  -84.2185 36.66 -5.65459
RightForeArm  13.8987 75.3093 52.4123
RightHand  -1.07563 5.28426 -11.9716
LeftUpLeg  -23.3214 -5.72613 2.09736
LeftLeg  114.444 1.88563 -4.33189
LeftFoot  38.3731 12.0886 -26.2984
LeftToes  -2.42178e-010 -1.66495e-011 -2.88221e-011
